<svg class="icon" viewBox="0 0 1024 1024" xmlns="http://www.w3.org/2000/svg" width="200" height="200">
    <path
        d="M513.085 37.673c132.23 0 252.386 52.88 338.883 140.155h.39C939.243 264.366 992.9 384.48 992.9 515.932c0 132.608-53.657 252.385-140.544 339.272l-3.02 2.632c-86.539 85.032-205.538 137.523-336.252 137.523-131.84 0-251.607-53.658-338.104-140.155h-.389C87.706 768.317 34.826 648.55 34.826 515.942c0-131.46 52.89-251.566 139.766-338.104l3.02-2.632c86.539-85.38 204.76-137.533 335.473-137.533z"
        fill="#70D871" data-spm-anchor-id="a313x.search_index.0.i0.6dae3a81OrJSFE" class="selected" />
    <path
        d="M460.206 284.754v178.299H281.907c-29.48 0-53.268 23.787-53.268 52.88 0 30.248 23.787 53.657 53.268 53.657h178.3v177.95c0 29.44 24.176 53.269 52.878 53.269 29.481 0 53.658-23.829 53.658-53.269V569.6h178.299c29.48 0 52.92-23.409 52.92-53.658a52.818 52.818 0 0 0-52.92-52.879H566.743v-178.31c0-28.712-24.177-52.878-53.658-52.878-28.702 0-52.879 24.176-52.879 52.879z"
        fill="#FFF" />
</svg>