<svg width="24" height="24" viewBox="0 0 24 24" xmlns="http://www.w3.org/2000/svg">
  <g stroke="#FF4D4F" stroke-width="1.6" fill="#fff" fill-rule="evenodd">
    <path d="M12 5l10 7.5L12 20 2 12.5z" />
    <g stroke-width="3.2">
      <path d="M13.4 11a1 1 0 1 0 0-2 1 1 0 0 0 0 2zM9 13.6a1 1 0 1 0 0-2 1 1 0 0 0 0 2z"
        stroke-width="1.2800000000000002" />
      <path stroke-linecap="round" d="M12.4 10.515l-2.532 1.534M9.868 13.113l2.668 1.576"
        stroke-width="1.2800000000000002" />
      <path d="M13.4 14.2a1 1 0 1 1 0 2 1 1 0 0 1 0-2z" stroke-width="1.2800000000000002" />
    </g>
  </g>
</svg>