<svg width="24" height="24" viewBox="0 0 24 24" xmlns="http://www.w3.org/2000/svg">
    <g fill="#0086FF" fill-rule="nonzero" stroke="#0086FF">
        <path
            d="M20.468 2.327H2.633c-.67 0-1.215.522-1.216 1.165v17.092c.001.643.545 1.164 1.216 1.165h17.835c.671-.001 1.215-.522 1.216-1.165V3.492c0-.643-.545-1.164-1.216-1.165zm.405 18.257a.397.397 0 0 1-.405.388H2.633a.397.397 0 0 1-.405-.388V3.492c0-.215.181-.389.405-.389h17.835c.224 0 .405.174.405.389v17.092z" />
        <path
            d="M16.414 13.588H6.967a.397.397 0 0 0-.405.389c0 .214.181.388.405.388h8.597l-1.872 2.167a.378.378 0 0 0 .054.547.418.418 0 0 0 .571-.051l2.359-2.73a.394.394 0 0 0 .12-.44.42.42 0 0 0-.382-.27zm-.278-3.054a.397.397 0 0 0 .405-.388.397.397 0 0 0-.405-.389H7.625l2.17-2.144a.377.377 0 0 0-.014-.544.418.418 0 0 0-.568.003L6.45 9.802a.399.399 0 0 0-.146.447.424.424 0 0 0 .387.285h9.446z" />
    </g>
</svg>