<svg class="icon" viewBox="0 0 1024 1024" xmlns="http://www.w3.org/2000/svg" width="200" height="200">
    <path
        d="M921.14 155.392H650.546V107.11c0-22.732-18.432-41.164-41.165-41.164h-183.04a41.165 41.165 0 0 0-41.164 41.164v48.282H110.643c-14.131 0-25.6 11.469-25.6 25.6s11.469 25.6 25.6 25.6H921.14c14.131 0 25.6-11.469 25.6-25.6s-11.469-25.6-25.6-25.6zM170.802 260.045V852.89c0 50.892 41.267 92.16 92.16 92.16h500.685c50.893 0 92.16-41.268 92.16-92.16V260.045H170.803zm249.14 462.797c0 14.13-11.47 25.6-25.6 25.6s-25.6-11.47-25.6-25.6V443.085c0-14.131 11.468-25.6 25.6-25.6s25.6 11.469 25.6 25.6v279.757zm243.148 0c0 14.13-11.469 25.6-25.6 25.6s-25.6-11.47-25.6-25.6V443.085c0-14.131 11.469-25.6 25.6-25.6s25.6 11.469 25.6 25.6v279.757z"
        fill="#ff4d4f" />
</svg>