<svg class="icon" viewBox="0 0 1024 1024" xmlns="http://www.w3.org/2000/svg" width="200" height="200">
    <path
        d="M314.496 704h393.056C759.264 704 800 665.12 800 618.656V544a64 64 0 1 1 128 0v74.656C928 737.184 828.64 832 707.552 832H314.496l50.752 50.752a64 64 0 0 1-90.496 90.496l-160-160a64 64 0 0 1 0-90.496l160-160a64 64 0 0 1 90.496 90.496L314.496 704zm395.008-384H316.448C264.736 320 224 358.88 224 405.344V480a64 64 0 1 1-128 0v-74.656C96 286.816 195.36 192 316.448 192h393.056l-50.752-50.752a64 64 0 0 1 90.496-90.496l160 160a64 64 0 0 1 0 90.496l-160 160a64 64 0 0 1-90.496-90.496L709.504 320z"
        fill="#f9a913" />
</svg>